FILE "Sangokushi III (1993)(Koei)(JP).img" BINARY
  TRACK 01 MODE1/2352
    INDEX 01 00:00:00
  TRACK 02 AUDIO
    PREGAP 00:02:00
    INDEX 01 01:03:20
  TRACK 03 AUDIO
    INDEX 00 01:09:27
    INDEX 01 01:11:26
  TRACK 04 AUDIO
    INDEX 00 01:21:35
    INDEX 01 01:23:34
  TRACK 05 AUDIO
    INDEX 00 01:30:39
    INDEX 01 01:32:38
  TRACK 06 AUDIO
    INDEX 00 01:38:40
    INDEX 01 01:40:39
  TRACK 07 AUDIO
    INDEX 00 01:46:46
    INDEX 01 01:48:45
  TRACK 08 AUDIO
    INDEX 00 01:53:48
    INDEX 01 01:55:47
  TRACK 09 AUDIO
    INDEX 00 01:59:56
    INDEX 01 02:01:55
  TRACK 10 AUDIO
    INDEX 00 02:05:59
    INDEX 01 02:07:58
  TRACK 11 AUDIO
    INDEX 00 02:11:65
    INDEX 01 02:13:64
  TRACK 12 AUDIO
    INDEX 00 02:17:67
    INDEX 01 02:19:66
  TRACK 13 AUDIO
    INDEX 00 02:23:68
    INDEX 01 02:25:67
  TRACK 14 AUDIO
    INDEX 00 02:29:70
    INDEX 01 02:31:69
  TRACK 15 AUDIO
    INDEX 00 02:35:72
    INDEX 01 02:37:71
  TRACK 16 AUDIO
    INDEX 00 02:42:00
    INDEX 01 02:43:74
  TRACK 17 AUDIO
    INDEX 00 02:48:01
    INDEX 01 02:50:00
  TRACK 18 AUDIO
    INDEX 00 02:54:03
    INDEX 01 02:56:02
  TRACK 19 AUDIO
    INDEX 00 03:00:06
    INDEX 01 03:02:05
  TRACK 20 AUDIO
    INDEX 00 03:06:08
    INDEX 01 03:08:07
  TRACK 21 AUDIO
    INDEX 00 03:12:10
    INDEX 01 03:14:09
  TRACK 22 AUDIO
    INDEX 00 03:18:14
    INDEX 01 03:20:13
  TRACK 23 AUDIO
    INDEX 00 03:24:20
    INDEX 01 03:26:19
  TRACK 24 AUDIO
    INDEX 00 03:30:26
    INDEX 01 03:32:25
  TRACK 25 AUDIO
    INDEX 00 07:16:58
    INDEX 01 07:18:57
  TRACK 26 AUDIO
    INDEX 00 08:56:23
    INDEX 01 08:58:22
  TRACK 27 AUDIO
    INDEX 00 11:39:37
    INDEX 01 11:41:36
  TRACK 28 AUDIO
    INDEX 00 11:59:07
    INDEX 01 12:01:06
  TRACK 29 AUDIO
    INDEX 00 14:33:01
    INDEX 01 14:35:00
  TRACK 30 AUDIO
    INDEX 00 14:49:38
    INDEX 01 14:51:37
  TRACK 31 AUDIO
    INDEX 00 17:35:60
    INDEX 01 17:37:59
  TRACK 32 AUDIO
    INDEX 00 19:27:67
    INDEX 01 19:29:66
  TRACK 33 AUDIO
    INDEX 00 21:51:34
    INDEX 01 21:53:33
  TRACK 34 AUDIO
    INDEX 00 23:24:29
    INDEX 01 23:26:28
  TRACK 35 AUDIO
    INDEX 00 23:40:31
    INDEX 01 23:42:30
  TRACK 36 AUDIO
    INDEX 00 26:03:57
    INDEX 01 26:05:56
  TRACK 37 AUDIO
    INDEX 00 27:57:00
    INDEX 01 27:58:74
  TRACK 38 AUDIO
    INDEX 00 31:18:21
    INDEX 01 31:20:20
  TRACK 39 AUDIO
    INDEX 00 34:22:27
    INDEX 01 34:24:26
  TRACK 40 AUDIO
    INDEX 00 36:26:47
    INDEX 01 36:28:46
  TRACK 41 AUDIO
    INDEX 00 39:33:59
    INDEX 01 39:35:58
  TRACK 42 AUDIO
    INDEX 00 41:42:72
    INDEX 01 41:44:71
  TRACK 43 AUDIO
    INDEX 00 45:58:05
    INDEX 01 46:00:04
  TRACK 44 AUDIO
    INDEX 00 47:11:24
    INDEX 01 47:13:23
  TRACK 45 AUDIO
    INDEX 00 48:06:56
    INDEX 01 48:08:55
  TRACK 46 AUDIO
    INDEX 00 49:41:61
    INDEX 01 49:43:60
  TRACK 47 AUDIO
    INDEX 00 51:07:18
    INDEX 01 51:09:17
  TRACK 48 AUDIO
    INDEX 00 52:33:59
    INDEX 01 52:35:58
  TRACK 49 AUDIO
    INDEX 00 54:12:02
    INDEX 01 54:14:01
  TRACK 50 AUDIO
    INDEX 00 55:41:00
    INDEX 01 55:42:74
